<svg width="148" height="58" viewBox="0 0 148 58" fill="none" xmlns="http://www.w3.org/2000/svg">
<path d="M27.5 25.6817H35V31.3887H27.5V39.9493H22.5V31.3887H15V25.6817H22.5V17.1211H27.5V25.6817ZM50 9.98732V39.9493L35 57.0704H8.75C4 57.0704 0 52.5048 0 47.0831V9.98732C0 4.56563 4 0 8.75 0H41.25C46 0 50 4.56563 50 9.98732ZM45 10.8434C45 7.98986 43 5.70704 40.5 5.70704H9.5C7 5.70704 5 7.98986 5 10.8434V46.5124C5 49.3659 7 51.6487 9.5 51.6487H32.5V47.3684C32.5 41.9467 36.5 37.3811 41.25 37.3811H45V10.8434Z" fill="url(#paint0_linear_305_267)"/>
<path d="M93.896 14.56H97.384L105.64 36H102.728L100.936 31.328H90.344L88.552 36H85.64L93.896 14.56ZM99.976 28.768L95.656 17.376L91.304 28.768H99.976ZM115.601 19.328C117.009 19.328 118.235 19.5733 119.281 20.064C120.326 20.5547 121.158 21.28 121.777 22.24V12.96H124.401V36H121.777V33.376C120.497 35.3387 118.438 36.32 115.601 36.32C114.406 36.32 113.297 36.1067 112.273 35.68C111.249 35.2533 110.363 34.6667 109.617 33.92C108.87 33.152 108.283 32.2453 107.857 31.2C107.451 30.1547 107.249 29.024 107.249 27.808C107.249 26.592 107.451 25.472 107.857 24.448C108.283 23.4027 108.87 22.5067 109.617 21.76C110.363 20.992 111.249 20.3947 112.273 19.968C113.297 19.5413 114.406 19.328 115.601 19.328ZM115.857 33.792C116.731 33.792 117.531 33.6427 118.257 33.344C118.982 33.0453 119.601 32.64 120.113 32.128C120.646 31.5947 121.051 30.9653 121.329 30.24C121.627 29.4933 121.777 28.6827 121.777 27.808C121.777 26.9333 121.627 26.1333 121.329 25.408C121.051 24.6827 120.646 24.0533 120.113 23.52C119.601 22.9867 118.982 22.5813 118.257 22.304C117.531 22.0053 116.731 21.856 115.857 21.856C115.003 21.856 114.214 22.0053 113.489 22.304C112.785 22.6027 112.166 23.0187 111.633 23.552C111.121 24.0853 110.715 24.7147 110.417 25.44C110.118 26.1653 109.969 26.9547 109.969 27.808C109.969 28.6613 110.118 29.4613 110.417 30.208C110.715 30.9333 111.121 31.5627 111.633 32.096C112.166 32.6293 112.785 33.0453 113.489 33.344C114.214 33.6427 115.003 33.792 115.857 33.792ZM136.601 19.328C138.009 19.328 139.235 19.5733 140.281 20.064C141.326 20.5547 142.158 21.28 142.777 22.24V12.96H145.401V36H142.777V33.376C141.497 35.3387 139.438 36.32 136.601 36.32C135.406 36.32 134.297 36.1067 133.273 35.68C132.249 35.2533 131.363 34.6667 130.617 33.92C129.87 33.152 129.283 32.2453 128.857 31.2C128.451 30.1547 128.249 29.024 128.249 27.808C128.249 26.592 128.451 25.472 128.857 24.448C129.283 23.4027 129.87 22.5067 130.617 21.76C131.363 20.992 132.249 20.3947 133.273 19.968C134.297 19.5413 135.406 19.328 136.601 19.328ZM136.857 33.792C137.731 33.792 138.531 33.6427 139.257 33.344C139.982 33.0453 140.601 32.64 141.113 32.128C141.646 31.5947 142.051 30.9653 142.329 30.24C142.627 29.4933 142.777 28.6827 142.777 27.808C142.777 26.9333 142.627 26.1333 142.329 25.408C142.051 24.6827 141.646 24.0533 141.113 23.52C140.601 22.9867 139.982 22.5813 139.257 22.304C138.531 22.0053 137.731 21.856 136.857 21.856C136.003 21.856 135.214 22.0053 134.489 22.304C133.785 22.6027 133.166 23.0187 132.633 23.552C132.121 24.0853 131.715 24.7147 131.417 25.44C131.118 26.1653 130.969 26.9547 130.969 27.808C130.969 28.6613 131.118 29.4613 131.417 30.208C131.715 30.9333 132.121 31.5627 132.633 32.096C133.166 32.6293 133.785 33.0453 134.489 33.344C135.214 33.6427 136.003 33.792 136.857 33.792Z" fill="white"/>
<defs>
<linearGradient id="paint0_linear_305_267" x1="25" y1="0" x2="25" y2="57.0704" gradientUnits="userSpaceOnUse">
<stop stop-color="#7AE0F5"/>
<stop offset="1" stop-color="#9F5EFA"/>
</linearGradient>
</defs>
</svg>
