<svg width="36" height="40" viewBox="0 0 36 40" fill="none" xmlns="http://www.w3.org/2000/svg">
<path d="M33.4763 17.5061L17.2128 33.7696C15.7125 35.2698 13.6777 36.1127 11.556 36.1127C9.43423 36.1127 7.39939 35.2698 5.8991 33.7696C4.39881 32.2693 3.55596 30.2344 3.55596 28.1127C3.55596 25.991 4.39881 23.9561 5.8991 22.4558L23.5768 4.77817C24.5145 3.84049 25.7862 3.31371 27.1123 3.31371C28.4384 3.31371 29.7102 3.84049 30.6478 4.77817C31.5855 5.71586 32.1123 6.98763 32.1123 8.31371C32.1123 9.63979 31.5855 10.9116 30.6478 11.8492L15.7986 26.6985C15.4235 27.0736 14.9148 27.2843 14.3844 27.2843C13.8539 27.2843 13.3452 27.0736 12.9702 26.6985C12.5951 26.3234 12.3844 25.8147 12.3844 25.2843C12.3844 24.7538 12.5951 24.2451 12.9702 23.8701L26.4052 10.435L24.2839 8.31371L10.8488 21.7487C9.91117 22.6864 9.38438 23.9582 9.38438 25.2843C9.38438 26.6104 9.91117 27.8821 10.8488 28.8198C11.7865 29.7575 13.0583 30.2843 14.3844 30.2843C15.7105 30.2843 16.9822 29.7575 17.9199 28.8198L32.7692 13.9706C34.2694 12.4703 35.1123 10.4354 35.1123 8.31371C35.1123 6.19198 34.2694 4.15715 32.7692 2.65685C31.2689 1.15656 29.234 0.313708 27.1123 0.313708C24.9906 0.313708 22.9557 1.15656 21.4555 2.65685L3.77778 20.3345C1.71488 22.3974 0.555955 25.1953 0.555955 28.1127C0.555955 31.0301 1.71488 33.828 3.77778 35.8909C5.84068 37.9538 8.63857 39.1127 11.556 39.1127C14.4733 39.1127 17.2712 37.9538 19.3341 35.8909L35.5976 19.6274L33.4763 17.5061Z" fill="#D9D9D9"/>
</svg>
